<svg preserveAspectRatio="none" width="100%" height="100%" overflow="visible" style="display: block;" viewBox="0 0 64 45" fill="none" xmlns="http://www.w3.org/2000/svg">
<path id="Union" fill-rule="evenodd" clip-rule="evenodd" d="M24.7799 9.90964L23.7833 8.22008C22.1524 3.44072 17.5877 0 12.2117 0C5.64789 0 0.293605 5.12904 0.0116713 11.5613H0V12.0949V45H11.8525V19.4577L13.9094 22.9446L13.9053 22.9423L23.0864 38.8645L23.0907 38.8649C25.23 42.4645 29.1776 44.8796 33.6936 44.8796H36.546V44.5258V27.542V20.222L48.1165 39.8749C49.6768 42.8488 52.8111 44.8796 56.4234 44.8796C59.0089 44.8796 61.3495 43.8392 63.0434 42.1573L54.8083 28.1018C60.1949 25.9635 64 20.7364 64 14.6274C64 6.61541 57.4551 0.120444 49.3816 0.120444C49.2624 0.120444 49.1436 0.121859 49.0251 0.124674V0.120445L24.7799 0.120446V0.297357V9.90964Z" fill="var(--fill-0, #4B5563)"/>
</svg>
